<?xml version="1.0" standalone="no"?>
<!DOCTYPE svg PUBLIC "-//W3C//DTD SVG 20010904//EN"
 "http://www.w3.org/TR/2001/REC-SVG-20010904/DTD/svg10.dtd">
<svg version="1.0" xmlns="http://www.w3.org/2000/svg"
 width="16.000000pt" height="16.000000pt" viewBox="0 0 16.000000 16.000000"
 preserveAspectRatio="xMidYMid meet">

<g transform="translate(0.000000,16.000000) scale(0.100000,-0.100000)"
fill="#000000" stroke="none">
<path d="M148 145 c-4 -4 -39 -7 -78 -7 l-70 1 0 -32 c0 -46 21 -80 55 -90 41
-11 83 6 96 40 11 29 9 100 -3 88z m-83 -76 c10 -15 -1 -23 -20 -15 -9 3 -13
10 -10 16 8 13 22 13 30 -1z m60 2 c7 -12 -12 -24 -25 -16 -11 7 -4 25 10 25
5 0 11 -4 15 -9z"/>
</g>
</svg>
